<svg xmlns="http://www.w3.org/2000/svg" width="32" height="32" viewBox="0 0 32 32" style="fill: #fff;"><path d="M32 20l-1.269-8.239C30.688 10.089 29.314 9 27.633 9H4.424c-1.681 0-3.055 1.088-3.098 2.761L.057 20H1v6.041C1 27.751 2.715 29 4.424 29h23.209C29.342 29 31 27.751 31 26.041V20H32zM3.292 11.913l.011.032C3.303 11.326 3.806 11 4.425 11h23.209c.619 0 1.122.222 1.122.841L29.708 18H23v-.91c0-.547-.453-.988-1-.988s-1 .442-1 .988V18H11v-.91c0-.547-.453-.988-1-.988s-1 .442-1 .988V18H2.351L3.292 11.913zM28.878 25.96c0 .619-.626 1.04-1.245 1.04H4.424C3.805 27 3 26.66 3 26.041V20h6v1.772c0 .547.453.988 1 .988s1-.442 1-.988V20h10v1.772c0 .547.453.988 1 .988s1-.442 1-.988V20h6v6.041L28.878 25.96zM15.83 5.681c2.377 0 3.66 1.319 3.66 1.319h1.977c0-1-2.424-3.296-5.637-3.296S10.193 6 10.193 7h1.977C12.17 7 13.453 5.681 15.83 5.681z"/></svg>