<svg xmlns="http://www.w3.org/2000/svg" width="96" height="96" viewBox="0 0 32 32" style="fill: #fff;"><circle cx="17.016" cy="6.814" r="1.223"/><path d="M31.05,11.665c-0.59-1.366-1.677-2.421-3.061-2.97c-1.38-0.548-2.896-0.525-4.266,0.065l-1.695,0.736 c-1.505-0.878-3.248-1.389-5.112-1.389c-3.482,0-6.559,1.758-8.398,4.431l-2.367-1.606c-0.276-0.187-0.628-0.225-0.937-0.099 l-4.589,1.858c-0.333,0.135-0.568,0.438-0.616,0.793c-0.048,0.356,0.099,0.71,0.385,0.928l6.387,4.872 c0.386,4.011,3.094,7.438,6.987,8.702L14,28h6l0.084-0.019c3.821-1.248,6.493-4.586,6.945-8.507l1.115-0.484 C30.965,17.771,32.268,14.486,31.05,11.665z M16.917,10.294c2.405,0,4.565,0.706,6.064,2.706H10.853 C12.352,11,14.511,10.294,16.917,10.294z M5.47,12.887l2.078,1.409c-0.34,0.794-0.571,1.642-0.7,2.523l-3.846-2.934L5.47,12.887z M19.609,26.031l-5.37,0.005c-3.303-1.141-5.511-4.138-5.511-7.647C8.728,17.143,9.016,16,9.517,15h14.799 c0.5,1,0.788,2.143,0.788,3.389C25.105,21.89,22.902,24.885,19.609,26.031z M27.35,17.154l-0.296,0.129 c-0.25-2.52-1.427-4.765-3.177-6.408l0.643-0.279c0.876-0.378,1.848-0.392,2.733-0.042c0.887,0.352,1.584,1.027,1.962,1.903 C29.995,14.267,29.159,16.372,27.35,17.154z"/></svg>