<svg version="1" xmlns="http://www.w3.org/2000/svg" width="96" height="96" viewBox="0 0 32 32" style="fill:#fff;"><path d="M22.317,21H9.683c-0.343,0-0.662,0.176-0.846,0.466c-0.183,0.29-0.205,0.654-0.057,0.964C10.101,25.206,12.936,27,16,27 c3.065,0,5.899-1.794,7.221-4.57c0.147-0.31,0.125-0.674-0.058-0.964C22.979,21.176,22.66,21,22.317,21z M16,25 c-1.716,0-3.336-0.751-4.46-2h8.92C19.337,24.249,17.717,25,16,25z"/><path d="M28.654,16.072C27.308,10.19,22.107,6,16,6c0,0-1.25-0.548-1.25-1.375S15.673,3.25,16.5,3.25S18,4,18,5h2 c0-2-1.695-3.75-3.625-3.75S12.75,2.57,12.75,4.5c0,0.649,0.266,1.25,0.642,1.771c-4.934,1.001-8.896,4.78-10.046,9.801 C2.005,16.372,1,17.57,1,19s1.005,2.629,2.345,2.928C4.692,27.81,9.893,32,16,32c6.108,0,11.309-4.19,12.654-10.072 C29.995,21.629,31,20.43,31,19S29.995,16.371,28.654,16.072z M28.025,19.999C28.024,19.999,28.024,19.999,28.025,19.999 l-1.039-0.087l-0.15,0.906C25.95,26.139,21.394,30,16,30c-5.393,0-9.95-3.861-10.836-9.182l-0.247-0.894L4,20c-0.551,0-1-0.449-1-1 s0.448-1,0.975-1c0,0,0.001,0,0.001,0l1.036,0.088l0.151-0.906C6.05,11.861,10.607,8,16,8s9.95,3.861,10.836,9.182l0.248,0.893 L28,18c0.552,0,1,0.448,1,1C29,19.551,28.552,19.999,28.025,19.999z"/><path d="M11.5 18c.827 0 1.5-.673 1.5-1.5S12.327 15 11.5 15 10 15.673 10 16.5 10.673 18 11.5 18zM20.5 18c.827 0 1.5-.673 1.5-1.5S21.327 15 20.5 15 19 15.673 19 16.5 19.673 18 20.5 18z"/></svg>