<svg xmlns="http://www.w3.org/2000/svg" width="96" height="96" viewBox="0 0 32 32" style="fill: #fff;"><path d="M31.966,13.277l-3.131-7.333l-3.867-1.856L21,0.02V0H11v0.008L7.152,4.012L3.101,5.944l-2.994,7.332L7,16.026V31h18V16.084 L31.966,13.277z M14.671,6.188l-1.882,1.881L9.434,4.714l1.882-1.882L14.671,6.188z M13.312,2h5.528l-2.764,2.764L13.312,2z M17.497,6.172l3.339-3.34l1.882,1.882l-3.34,3.339L17.497,6.172z M23,29H9V10.685l-2,0.002v3.178L2.794,12.2l1.993-4.766 l3.107-1.471l4.914,4.933l3.293-3.302l3.282,3.286l4.888-4.889l3.084,1.443l1.964,4.765L25,13.923V11h-2V29z"/><circle cx="16.033" cy="15.856" r="1.223"/><circle cx="16.033" cy="22.239" r="1.223"/></svg>