<svg xmlns="http://www.w3.org/2000/svg" width="96" height="96" viewBox="0 0 32 32" style="fill: #fff;"><path d="M23,17c0-0.215,0.138-0.547,0.297-0.931C23.594,15.353,24,14.37,24,13c0-2.139-2.588-3.283-4-3.748V5c0-0.553-0.447-1-1-1	h-2V3h2c0-1.654-1.346-3-3-3s-3,1.346-3,3h2v1h-2c-0.553,0-1,0.447-1,1v4.252C10.588,9.717,8,10.861,8,13	c0,1.37,0.406,2.353,0.703,3.069C8.862,16.453,9,16.785,9,17c0,0.197-0.074,0.781-0.161,1.458C8.546,20.753,8,25.026,8,31	c0,0.553,0.447,1,1,1h14c0.553,0,1-0.447,1-1c0-5.974-0.546-10.247-0.839-12.542C23.074,17.781,23,17.197,23,17z M14,6h4v3h-4V6z M21.177,18.711c0.271,2.121,0.762,5.963,0.818,11.289h-11.99c0.057-5.326,0.547-9.168,0.818-11.289C10.934,17.847,11,17.325,11,17 c0-0.613-0.218-1.14-0.448-1.696C10.28,14.649,10,13.973,10,13c0-0.758,1.81-1.644,3.129-2h5.742C20.19,11.356,22,12.242,22,13 c0,0.973-0.28,1.649-0.552,2.304C21.218,15.86,21,16.387,21,17C21,17.325,21.066,17.847,21.177,18.711z"/></svg>