<svg xmlns="http://www.w3.org/2000/svg" width="96" height="96" viewBox="0 0 32 32" style="fill: #fff;"><path d="M22.26,23.8l0.193,0.571l3.876,0.622L30,2.089l-3.876-0.621L25.762,1.95c-0.596,0.793-1.58,1.211-2.593,1.051	c-0.993-0.159-1.812-0.852-2.135-1.809l-0.193-0.571L16.965,0l-1.472,9.183l-1.281-3.325l-3.663,1.412l-0.07,0.6	c-0.117,1.002-0.774,1.849-1.714,2.211c-0.932,0.356-2.008,0.162-2.753-0.49L5.558,9.193l-3.664,1.412L9.83,32l4.067-1.162	l0.07-0.599c0.118-1.003,0.774-1.85,1.713-2.211c0.933-0.36,2.009-0.161,2.754,0.489l0.455,0.396l3.663-1.409l-2.084-5.409 C21.299,22.346,21.976,22.959,22.26,23.8z M19.252,26.632c-1.246-0.826-2.874-1.016-4.291-0.471 c-1.438,0.554-2.494,1.761-2.866,3.229l-0.715,0.274l-6.9-17.912l0.714-0.274c1.247,0.827,2.876,1.015,4.291,0.47 c1.438-0.554,2.494-1.761,2.866-3.229l0.715-0.274l1.798,4.667l-1.569,9.792l3.876,0.622l0.362-0.483 c0.234-0.312,0.542-0.546,0.876-0.73l1.558,4.044L19.252,26.632z M20.441,20.017c-1.538-0.247-3.05,0.284-4.1,1.351l-0.757-0.122 l3.038-18.954l0.756,0.121c0.67,1.359,1.954,2.32,3.474,2.563c1.538,0.244,3.048-0.282,4.1-1.35l0.757,0.121l-3.038,18.955 l-0.756-0.122C23.245,21.222,21.962,20.261,20.441,20.017z"/></svg>