<svg xmlns="http://www.w3.org/2000/svg" width="96" height="96" viewBox="0 0 32 32" style="fill: #fff;"><path d="M22.665,9c0.485,0,0.963-0.493,1.421-0.951c2.546-2.546,3.084-5.315,1.34-7.06C24.768,0.331,24.088,0,23.136,0	c-1.482,0-3.416,0.946-4.885,2.415c-1.024,1.024-1.716,2.134-2.192,3.179c-0.476-1.046-1.167-2.134-2.192-3.158	C12.399,0.967,10.483,0,9,0C8.049,0,7.352,0.444,6.694,1.102c-1.745,1.745-1.206,4.401,1.34,6.947C8.492,8.506,8.97,9,9.454,9H3v23	h26V9H22.665z M27,16H17v-5h10V16z M19.666,3.857c1.069-1.069,2.365-1.76,3.3-1.76c0.427,0,0.759,0.134,1.046,0.42 c1.186,1.187-0.284,3.29-1.34,4.346c-1.889,1.889-4.27,2.409-5.578,2.55C17.213,8.134,17.712,5.812,19.666,3.857z M8.108,2.518 c0.287-0.286,0.619-0.42,1.046-0.42c0.936,0,2.231,0.69,3.3,1.76c1.955,1.955,2.453,4.277,2.572,5.556 c-1.308-0.141-3.689-0.661-5.578-2.55C8.392,5.808,6.922,3.704,8.108,2.518z M15,11v5H5v-5H15z M5,18h10v12H5V18z M17,30V18h10v12 H17z"/></svg>