<svg xmlns="http://www.w3.org/2000/svg" width="96" height="96" viewBox="0 0 32 32" style="fill: #fff;"><path d="M32,30H19.818l-0.17-0.063c-4.852-1.819-6.62-5.299-8.331-8.663c-0.923-1.816-1.81-3.559-3.163-4.994L9.069,30H5v-1	c0-7.688-3.875-16.506-3.914-16.594l-0.073-0.245C1.002,12.093-0.031,5.259,6.568,2.098l0.484-0.232l0.462,0.277	c2.306,1.384,3.896,4.4,5.737,7.893c2.433,4.614,5.19,9.845,10.154,12.051c0.534,0.237,1.227,0.459,1.707,0.668	C29.15,24.511,32,25.672,32,29V30z M20.185,28h9.277c-0.481-1.237-2.038-1.979-5.33-3.412c-0.486-0.211-0.999-0.435-1.538-0.674 c-5.598-2.488-8.526-8.044-11.11-12.946c-1.498-2.84-2.919-5.535-4.556-6.806c-4.319,2.396-4.037,6.816-3.955,7.567 c0.437,1.008,2.952,7.021,3.771,13.448L5.867,12.043l1.688,1.125c2.853,1.901,4.222,4.595,5.546,7.199 C14.687,23.487,16.187,26.437,20.185,28z"/></svg>