<svg xmlns="http://www.w3.org/2000/svg" width="96" height="96" viewBox="0 0 32 32" style="fill: #fff;"><path d="M24.955 14.678c-.6 0-1.179.087-1.733.237l-1.065-2.33c-.064-.14-.163-.252-.277-.346l-.668-1.456 3.086-1.198c.515-.2.77-.779.57-1.294-.201-.515-.778-.772-1.295-.57l-4.076 1.583c-.515.2-.77.779-.57 1.294.009.023.025.04.036.061.005.012.003.024.008.036L19.57 12h-7.51c-.331 0-.641.164-.827.438L9.329 15.24c-.818-.359-1.719-.562-2.668-.562C2.988 14.678 0 17.666 0 21.339S2.988 28 6.661 28s6.661-2.988 6.661-6.661c0-2.007-.896-3.804-2.304-5.026L12.59 14h2.91l-1.01 6.176c-.363.26-.601.682-.601 1.163 0 .791.641 1.432 1.432 1.432s1.432-.641 1.432-1.432c0-.32-.109-.613-.287-.852L17.527 14h2.961l.815 1.775c-1.81 1.192-3.008 3.239-3.008 5.564 0 3.673 2.988 6.661 6.661 6.661s6.66-2.988 6.66-6.661S28.628 14.678 24.955 14.678zM6.661 26C4.091 26 2 23.909 2 21.339s2.091-4.661 4.661-4.661c.53 0 1.031.108 1.506.271l-2.371 3.488c-.208.307-.23.703-.057 1.03S6.252 22 6.623 22h4.632C10.93 24.256 9.005 26 6.661 26zM11.102 20H8.512l1.37-2.016C10.452 18.531 10.868 19.225 11.102 20zM24.955 26c-2.57 0-4.661-2.091-4.661-4.661 0-1.516.738-2.852 1.862-3.703l.521 1.135c.062.134.155.24.26.331l1.079 2.361c.168.367.53.584.91.584.139 0 .28-.029.415-.091.502-.229.723-.822.493-1.325l-1.765-3.862c.287-.056.583-.09.886-.09 2.569 0 4.66 2.09 4.66 4.661S27.524 26 24.955 26zM9 8H14V10H9z"/></svg>