<svg xmlns="http://www.w3.org/2000/svg" width="96" height="96" viewBox="0 0 32 32"><path d="M31.819 2.615C31.633 2.348 29.803 0 23.107 0h-2.245C9.051 0 1.072 2.133.738 2.223L0 2.43v6.412l.418.239C.73 9.196 8 11.789 19 11.936V21h8v-9.722l5-2.52V2.88L31.819 2.615zM2 3.98c1.034-.24 3.122-.678 6-1.081v5.979C5.081 8.33 2.993 7.726 2 7.418V3.98zM30 7.526l-5 2.52V19h-4v-9h-.69C16.369 10 12.882 9.668 10 9.221V2.642C13.028 2.288 16.716 2 20.862 2h2.245C27.632 2 29.465 3.163 30 3.601V7.526zM22.222 23c0 0 .037 1.649-.938 2.654-.54.557-1.296.823-2.311.823-5.169 0-5.899 2.649-5.918 5.513l2 .012c.015-2.188.212-3.529 3.918-3.529 1.57 0 2.836-.478 3.761-1.44C24.197 25.509 24.226 23 24.22 23h-1.972H22.222z"/></svg>